{
  "asset": {
    "version": "2.0",
    "generator": "THREE.GLTFExporter"
  },
  "scenes": [
    {
      "name": "Scene",
      "nodes": [
        4,
        5,
        6,
        7,
        8,
        9,
        10
      ]
    }
  ],
  "scene": 0,
  "nodes": [
    {
      "name": "changeMap",
      "mesh": 0
    },
    {
      "name": "changeMap02",
      "mesh": 1
    },
    {
      "name": "round",
      "mesh": 3
    },
    {
      "name": "round",
      "mesh": 2,
      "children": [
        2
      ]
    },
    {
      "matrix": [
        1,
        0,
        0,
        0,
        0,
        1,
        0,
        0,
        0,
        0,
        1,
        0,
        -5.059049607571273,
        -2.5678002386914214,
        0.12751975294067863,
        1
      ],
      "name": "Ceramic_CeramicChip01",
      "children": [
        0,
        1,
        3
      ]
    },
    {
      "name": "AmbientLight"
    },
    {
      "name": "AmbientLight"
    },
    {
      "matrix": [
        1,
        0,
        0,
        0,
        0,
        1,
        0,
        0,
        0,
        0,
        1,
        0,
        -0.8034914953296943,
        2.6801851219168746,
        -9.373964453829348,
        1
      ],
      "name": "PointLight",
      "extensions": {
        "KHR_lights_punctual": {
          "light": 0
        }
      }
    },
    {
      "matrix": [
        1,
        0,
        0,
        0,
        0,
        1,
        0,
        0,
        0,
        0,
        1,
        0,
        -1.3965629956926686,
        1.8728784702253103,
        3.9989080925155367,
        1
      ],
      "name": "DirectionalLight",
      "extensions": {
        "KHR_lights_punctual": {
          "light": 1
        }
      }
    },
    {
      "name": "AmbientLight"
    },
    {
      "matrix": [
        1,
        0,
        0,
        0,
        0,
        1,
        0,
        0,
        0,
        0,
        1,
        0,
        8.381257078529675,
        6.525701200360782,
        1.2414218470993688,
        1
      ],
      "name": "DirectionalLight",
      "extensions": {
        "KHR_lights_punctual": {
          "light": 2
        }
      }
    }
  ],
  "bufferViews": [
    {
      "buffer": 0,
      "byteOffset": 0,
      "byteLength": 30888,
      "target": 34962,
      "byteStride": 12
    },
    {
      "buffer": 0,
      "byteOffset": 30888,
      "byteLength": 30888,
      "target": 34962,
      "byteStride": 12
    },
    {
      "buffer": 0,
      "byteOffset": 61776,
      "byteLength": 20592,
      "target": 34962,
      "byteStride": 8
    },
    {
      "buffer": 0,
      "byteOffset": 82368,
      "byteLength": 30888,
      "target": 34962,
      "byteStride": 12
    },
    {
      "buffer": 0,
      "byteOffset": 113256,
      "byteLength": 30888,
      "target": 34962,
      "byteStride": 12
    },
    {
      "buffer": 0,
      "byteOffset": 144144,
      "byteLength": 20592,
      "target": 34962,
      "byteStride": 8
    },
    {
      "buffer": 0,
      "byteOffset": 164736,
      "byteLength": 1224,
      "target": 34962,
      "byteStride": 12
    },
    {
      "buffer": 0,
      "byteOffset": 165960,
      "byteLength": 1224,
      "target": 34962,
      "byteStride": 12
    },
    {
      "buffer": 0,
      "byteOffset": 167184,
      "byteLength": 816,
      "target": 34962,
      "byteStride": 8
    },
    {
      "buffer": 0,
      "byteOffset": 168000,
      "byteLength": 13752,
      "target": 34962,
      "byteStride": 12
    },
    {
      "buffer": 0,
      "byteOffset": 181752,
      "byteLength": 13752,
      "target": 34962,
      "byteStride": 12
    },
    {
      "buffer": 0,
      "byteOffset": 195504,
      "byteLength": 9168,
      "target": 34962,
      "byteStride": 8
    }
  ],
  "buffers": [
    {
      "byteLength": 204672,
      "uri": "data:application/octet-stream;base64,"
    }
  ],
  "accessors": [
    {
      "bufferView": 0,
      "componentType": 5126,
      "count": 2574,
      "max": [
        9.39427661895752,
        10.264663696289062,
        0.5
      ],
      "min": [
        1.625792145729065,
        2.4959959983825684,
        0.4000000059604645
      ],
      "type": "VEC3"
    },
    {
      "bufferView": 1,
      "componentType": 5126,
      "count": 2574,
      "max": [
        0.9999770522117615,
        1,
        1
      ],
      "min": [
        -0.9996609687805176,
        -1,
        -1.1542531552777291e-7
      ],
      "type": "VEC3"
    },
    {
      "bufferView": 2,
      "componentType": 5126,
      "count": 2574,
      "max": [
        0.8992244005203247,
        0.967906653881073
      ],
      "min": [
        0.0759764164686203,
        0.06326979398727417
      ],
      "type": "VEC2"
    },
    {
      "bufferView": 3,
      "componentType": 5126,
      "count": 2574,
      "max": [
        9.39427661895752,
        10.264663696289062,
        0.10000000149011612
      ],
      "min": [
        1.625792145729065,
        2.4959959983825684,
        -6.106226635438361e-16
      ],
      "type": "VEC3"
    },
    {
      "bufferView": 4,
      "componentType": 5126,
      "count": 2574,
      "max": [
        0.9999770522117615,
        1,
        1.1568516100624038e-7
      ],
      "min": [
        -0.9996609687805176,
        -1,
        -1
      ],
      "type": "VEC3"
    },
    {
      "bufferView": 5,
      "componentType": 5126,
      "count": 2574,
      "max": [
        0.9240235686302185,
        0.967906653881073
      ],
      "min": [
        0.1007755845785141,
        0.06326979398727417
      ],
      "type": "VEC2"
    },
    {
      "bufferView": 6,
      "componentType": 5126,
      "count": 102,
      "max": [
        5.735226154327393,
        9.355182647705078,
        0.47999998927116394
      ],
      "min": [
        5.28506326675415,
        8.905181884765625,
        0.019999999552965164
      ],
      "type": "VEC3"
    },
    {
      "bufferView": 7,
      "componentType": 5126,
      "count": 102,
      "max": [
        1,
        0.9999999403953552,
        4.8055190937645875e-9
      ],
      "min": [
        -1,
        -0.9999999403953552,
        -4.805522646478266e-9
      ],
      "type": "VEC3"
    },
    {
      "bufferView": 8,
      "componentType": 5126,
      "count": 102,
      "max": [
        0.5114645957946777,
        0.8620004653930664
      ],
      "min": [
        0.4637596011161804,
        0.8095992803573608
      ],
      "type": "VEC2"
    },
    {
      "bufferView": 9,
      "componentType": 5126,
      "count": 1146,
      "max": [
        9.416377067565918,
        10.286764144897461,
        0.4000000059604645
      ],
      "min": [
        1.6036930084228516,
        2.473895788192749,
        0.10000000149011612
      ],
      "type": "VEC3"
    },
    {
      "bufferView": 10,
      "componentType": 5126,
      "count": 1146,
      "max": [
        1,
        1,
        0.3254058063030243
      ],
      "min": [
        -1,
        -1,
        -0.3254058063030243
      ],
      "type": "VEC3"
    },
    {
      "bufferView": 11,
      "componentType": 5126,
      "count": 1146,
      "max": [
        1,
        1
      ],
      "min": [
        0,
        0
      ],
      "type": "VEC2"
    }
  ],
  "materials": [
    {
      "pbrMetallicRoughness": {
        "metallicFactor": 0,
        "roughnessFactor": 0.4,
        "baseColorTexture": {
          "index": 0
        }
      }
    },
    {
      "pbrMetallicRoughness": {
        "metallicFactor": 0,
        "roughnessFactor": 0.4,
        "baseColorTexture": {
          "index": 1
        }
      }
    },
    {
      "pbrMetallicRoughness": {
        "metallicFactor": 0,
        "roughnessFactor": 0.4
      }
    },
    {
      "pbrMetallicRoughness": {
        "metallicFactor": 0,
        "roughnessFactor": 1
      }
    }
  ],
  "textures": [
    {
      "sampler": 0,
      "source": 0
    },
    {
      "sampler": 1,
      "source": 1
    }
  ],
  "samplers": [
    {
      "magFilter": 9729,
      "minFilter": 9987,
      "wrapS": 33071,
      "wrapT": 33071
    },
    {
      "magFilter": 9729,
      "minFilter": 9987,
      "wrapS": 33071,
      "wrapT": 33071
    }
  ],
  "images": [
    {
      "mimeType": "image/jpeg",
      "uri": "data:image/jpeg;base64,"
    },
    {
      "mimeType": "image/jpeg",
      "uri": "data:image/jpeg;base64,"
    }
  ],
  "meshes": [
    {
      "primitives": [
        {
          "mode": 4,
          "attributes": {
            "POSITION": 0,
            "NORMAL": 1,
            "TEXCOORD_0": 2
          },
          "material": 0
        }
      ]
    },
    {
      "primitives": [
        {
          "mode": 4,
          "attributes": {
            "POSITION": 3,
            "NORMAL": 4,
            "TEXCOORD_0": 5
          },
          "material": 1
        }
      ]
    },
    {
      "primitives": [
        {
          "mode": 4,
          "attributes": {
            "POSITION": 6,
            "NORMAL": 7,
            "TEXCOORD_0": 8
          },
          "material": 2
        }
      ]
    },
    {
      "primitives": [
        {
          "mode": 4,
          "attributes": {
            "POSITION": 9,
            "NORMAL": 10,
            "TEXCOORD_0": 11
          },
          "material": 3
        }
      ]
    }
  ],
  "extensions": {
    "KHR_lights_punctual": {
      "lights": [
        {
          "name": "PointLight",
          "color": [
            1,
            1,
            1
          ],
          "intensity": 0.6,
          "type": "point"
        },
        {
          "name": "DirectionalLight",
          "color": [
            1,
            1,
            1
          ],
          "intensity": 0.7,
          "type": "directional"
        },
        {
          "name": "DirectionalLight",
          "color": [
            1,
            1,
            1
          ],
          "intensity": 0.3,
          "type": "directional"
        }
      ]
    }
  },
  "extensionsUsed": [
    "KHR_lights_punctual"
  ]
}